<svg xmlns="http://www.w3.org/2000/svg" width="28" height="28" viewBox="0 0 28 28" fill="none">
  <path d="M21 9.33333C21 7.47681 20.2625 5.69638 18.9497 4.38364C17.637 3.0709 15.8565 2.33333 14 2.33333C12.1435 2.33333 10.363 3.0709 9.05025 4.38364C7.73751 5.69638 7 7.47681 7 9.33333C7 17.5 3.5 19.8333 3.5 19.8333H24.5C24.5 19.8333 21 17.5 21 9.33333Z" stroke="#1a3a2a" stroke-width="2.5" stroke-linecap="round" stroke-linejoin="round"/>
  <path d="M16.0183 24.5C15.8433 24.8022 15.5923 25.053 15.2899 25.2277C14.9875 25.4024 14.6438 25.4948 14.2933 25.4948C13.9428 25.4948 13.5991 25.4024 13.2967 25.2277C12.9943 25.053 12.7433 24.8022 12.5683 24.5" stroke="#1a3a2a" stroke-width="2.5" stroke-linecap="round" stroke-linejoin="round"/>
</svg>
